<svg width="23" height="23" viewBox="0 0 23 23" fill="none" xmlns="http://www.w3.org/2000/svg">
<path fill-rule="evenodd" clip-rule="evenodd" d="M11.4073 0.55127C8.41975 0.55127 8.04575 0.563736 6.87242 0.61727C5.70128 0.670803 4.90122 0.85707 4.20162 1.12914C3.46828 1.40487 2.80315 1.83754 2.25315 2.3978C1.69378 2.94717 1.26084 3.61183 0.984482 4.34554C0.713882 5.04514 0.526882 5.84594 0.473349 7.01707C0.420549 8.18967 0.407349 8.56294 0.407349 11.5513C0.407349 14.5396 0.419815 14.9129 0.473349 16.0862C0.526882 17.2573 0.713149 18.0574 0.985215 18.757C1.26095 19.4903 1.69362 20.1555 2.25388 20.7055C2.80326 21.2648 3.46792 21.6978 4.20162 21.9741C4.90122 22.2455 5.70128 22.4317 6.87242 22.4853C8.04575 22.5388 8.41975 22.5513 11.4073 22.5513C14.3949 22.5513 14.7689 22.5388 15.9423 22.4853C17.1134 22.4317 17.9135 22.2455 18.6131 21.9734C19.3464 21.6977 20.0116 21.265 20.5616 20.7047C21.1209 20.1554 21.5539 19.4907 21.8302 18.757C22.1015 18.0574 22.2878 17.2573 22.3414 16.0862C22.3949 14.9129 22.4073 14.5389 22.4073 11.5513C22.4073 8.56367 22.3949 8.18967 22.3414 7.01634C22.2878 5.8452 22.1015 5.04514 21.8295 4.34554C21.5533 3.61152 21.1204 2.94657 20.5608 2.39707C20.0115 1.8377 19.3468 1.40477 18.6131 1.1284C17.9135 0.857803 17.1127 0.670803 15.9415 0.61727C14.7689 0.56447 14.3957 0.55127 11.4073 0.55127ZM11.4073 2.53347C14.3443 2.53347 14.6927 2.54447 15.8528 2.59727C16.9249 2.6464 17.5072 2.8246 17.8951 2.9764C18.4085 3.17514 18.7751 3.4142 19.1601 3.79847C19.5451 4.18347 19.7835 4.55014 19.9822 5.06347C20.1333 5.4514 20.3122 6.03367 20.3613 7.1058C20.4141 8.26594 20.4251 8.61427 20.4251 11.5513C20.4251 14.4883 20.4141 14.8366 20.3613 15.9967C20.3122 17.0689 20.134 17.6511 19.9822 18.0391C19.8062 18.5169 19.5253 18.9491 19.1601 19.3041C18.8053 19.6693 18.373 19.9502 17.8951 20.1261C17.5072 20.2772 16.9249 20.4561 15.8528 20.5053C14.6927 20.5581 14.3451 20.5691 11.4073 20.5691C8.46961 20.5691 8.12202 20.5581 6.96188 20.5053C5.88975 20.4561 5.30748 20.2779 4.91955 20.1261C4.44175 19.9501 4.00949 19.6692 3.65455 19.3041C3.28948 18.9491 3.00858 18.5168 2.83248 18.0391C2.68142 17.6511 2.50248 17.0689 2.45335 15.9967C2.40055 14.8366 2.38955 14.4883 2.38955 11.5513C2.38955 8.61427 2.40055 8.26594 2.45335 7.1058C2.50248 6.03367 2.68068 5.4514 2.83248 5.06347C3.03122 4.55014 3.27028 4.18347 3.65455 3.79847C4.00944 3.4333 4.44172 3.15238 4.91955 2.9764C5.30748 2.82534 5.88975 2.6464 6.96188 2.59727C8.12202 2.54447 8.47035 2.53347 11.4073 2.53347Z" fill="black"/>
<path fill-rule="evenodd" clip-rule="evenodd" d="M11.4073 15.2216C10.9254 15.2216 10.4481 15.1267 10.0028 14.9422C9.55747 14.7578 9.15285 14.4874 8.81203 14.1466C8.47121 13.8058 8.20085 13.4012 8.0164 12.9558C7.83195 12.5105 7.73701 12.0333 7.73701 11.5513C7.73701 11.0693 7.83195 10.592 8.0164 10.1467C8.20085 9.70139 8.47121 9.29677 8.81203 8.95595C9.15285 8.61513 9.55747 8.34478 10.0028 8.16032C10.4481 7.97587 10.9254 7.88094 11.4073 7.88094C12.3808 7.88094 13.3143 8.26763 14.0027 8.95595C14.691 9.64427 15.0777 10.5778 15.0777 11.5513C15.0777 12.5247 14.691 13.4583 14.0027 14.1466C13.3143 14.8349 12.3808 15.2216 11.4073 15.2216ZM11.4073 5.89727C9.90781 5.89727 8.4697 6.49296 7.40937 7.55329C6.34904 8.61362 5.75335 10.0517 5.75335 11.5513C5.75335 13.0508 6.34904 14.4889 7.40937 15.5493C8.4697 16.6096 9.90781 17.2053 11.4073 17.2053C12.9069 17.2053 14.345 16.6096 15.4053 15.5493C16.4657 14.4889 17.0613 13.0508 17.0613 11.5513C17.0613 10.0517 16.4657 8.61362 15.4053 7.55329C14.345 6.49296 12.9069 5.89727 11.4073 5.89727ZM18.7062 5.7946C18.7062 6.14906 18.5654 6.48901 18.3148 6.73965C18.0641 6.99029 17.7242 7.1311 17.3697 7.1311C17.0152 7.1311 16.6753 6.99029 16.4247 6.73965C16.174 6.48901 16.0332 6.14906 16.0332 5.7946C16.0332 5.44014 16.174 5.1002 16.4247 4.84955C16.6753 4.59891 17.0152 4.4581 17.3697 4.4581C17.7242 4.4581 18.0641 4.59891 18.3148 4.84955C18.5654 5.1002 18.7062 5.44014 18.7062 5.7946Z" fill="black"/>
</svg>
